<?xml version="1.0" encoding="UTF-8" standalone="no"?>
<!-- Generator: Adobe Illustrator 14.0.0, SVG Export Plug-In . SVG Version: 6.00 Build 43363)  -->

<svg
   version="1.1"
   i:viewOrigin="70.957 718.8887"
   i:rulerOrigin="-70.957 -123.6133"
   i:pageBounds="70.957 718.8887 513.4346 123.6133"
   x="0px"
   y="0px"
   width="442.478px"
   height="595.275px"
   viewBox="0 0 442.478 595.275"
   enable-background="new 0 0 442.478 595.275"
   xml:space="preserve"
   id="svg29"
   sodipodi:docname="Pera.svg"
   inkscape:version="1.3 (0e150ed, 2023-07-21)"
   xmlns:inkscape="http://www.inkscape.org/namespaces/inkscape"
   xmlns:sodipodi="http://sodipodi.sourceforge.net/DTD/sodipodi-0.dtd"
   xmlns="http://www.w3.org/2000/svg"
   xmlns:svg="http://www.w3.org/2000/svg"
   xmlns:i="&amp;ns_ai;"
   xmlns:ns="&amp;ns_vars;"><defs
   id="defs29" /><sodipodi:namedview
   id="namedview29"
   pagecolor="#ffffff"
   bordercolor="#666666"
   borderopacity="1.0"
   inkscape:showpageshadow="2"
   inkscape:pageopacity="0.0"
   inkscape:pagecheckerboard="0"
   inkscape:deskcolor="#d1d1d1"
   inkscape:zoom="1.3260502"
   inkscape:cx="288.45062"
   inkscape:cy="390.63378"
   inkscape:window-width="1232"
   inkscape:window-height="793"
   inkscape:window-x="0"
   inkscape:window-y="25"
   inkscape:window-maximized="0"
   inkscape:current-layer="g7" />&#10;<metadata
   id="metadata1">&#10;	<ns:variableSets>&#10;		<ns:variableSet
   locked="none"
   varSetName="binding1">&#10;			<ns:variables />&#10;			<ns:sampleDataSets />&#10;		</ns:variableSet>&#10;	</ns:variableSets>&#10;</metadata>&#10;<g
   id="g7">&#10;				&#10;				<path
   style="fill:#f1d089"
   d="m 203.043,576.89712 c -35.24923,-2.92527 -75.46052,-16.44029 -94.51468,-31.76641 -13.284686,-10.68547 -26.860774,-38.99304 -33.179928,-69.18365 -2.323911,-11.1028 -2.62205,-14.76053 -2.572286,-31.55836 0.0486,-16.40614 0.403703,-20.63822 2.601108,-31 4.27601,-20.16335 9.781349,-33.12729 25.692266,-60.5 3.67653,-6.325 10.08617,-17.575 14.24363,-25 4.15747,-7.425 9.92044,-16.65 12.80661,-20.5 7.06408,-9.42312 10.58383,-17.29146 12.40394,-27.72878 1.86701,-10.7062 4.82271,-17.55917 11.91226,-27.61928 13.38826,-18.99799 29.42527,-29.74755 44.10708,-29.56482 14.17541,0.17643 36.64522,9.08175 50.23565,19.90958 8.8019,7.0127 13.62655,12.78531 46.01966,55.06178 41.87175,54.64712 45.18562,59.67751 54.1253,82.16131 7.75016,19.49211 11.14567,34.08483 14.18434,60.95946 1.01181,8.94868 1.01658,13.53782 0.0239,23 -2.69561,25.69421 -10.20905,44.61925 -24.85993,62.6178 -23.58898,28.97899 -61.42984,47.71261 -101.22891,50.11474 -5.775,0.34855 -13.2,0.80278 -16.5,1.00938 -3.3,0.2066 -10.275,0.0209 -15.5,-0.41275 z"
   id="path457" /><path
   i:knockout="Off"
   fill="#502C14"
   d="M181.457,232.629c0,0-18.6-66.273,2.328-101.15      c20.928-34.882,24.413-6.979,24.413-3.489c0,3.489-33.715,30.23-16.277,94.171C187.27,237.276,181.457,232.629,181.457,232.629z      "
   id="path4" />&#10;				&#10;					&#10;				&#10;				<path
   style="fill:#6f8023"
   d="m 331.543,223.19526 c -20.28787,-1.06604 -43.72113,-5.33808 -51.7508,-9.43451 -6.5827,-3.35824 -24.19492,-22.79666 -38.39128,-42.37205 -9.01227,-12.42704 -8.62382,-11.38754 -6.56997,-17.58127 2.20604,-6.65265 10.72941,-20.08667 16.00441,-25.22516 l 3.90755,-3.80644 10.10024,2.02479 c 19.65092,3.9394 35.2602,11.91024 49.76816,25.41396 17.8221,16.58845 29.34531,39.88607 30.87552,62.42412 l 0.62803,9.25 -4.28593,-0.18908 c -2.35726,-0.104 -6.98593,-0.33096 -10.28593,-0.50436 z"
   id="path443" /><path
   style="fill:#506d25"
   d="m 155.21207,134.31617 c -24.60871,-7.55999 -36.80691,-15.90519 -40.21802,-27.51451 -0.55155,-1.87713 -1.48974,-8.58796 -2.08485,-14.91296 -2.2672,-24.096051 -2.29665,-23.081265 0.85808,-29.574006 5.11378,-10.524678 12.031,-18.765581 26.85509,-31.994084 11.48004,-10.244382 19.15624,-15.432061 22.83342,-15.431121 3.17599,8.11e-4 13.69994,4.519171 18.52011,7.951429 2.68917,1.91486 2.73651,1.914771 4.38303,-0.0082 2.05242,-2.397053 3.91402,-2.434121 9.70164,-0.193177 6.11609,2.368127 11.47202,5.817181 13.22546,8.516796 3.73745,5.754212 5.05572,12.767687 4.44775,23.662812 -1.10615,19.822447 -6.51308,34.8293 -18.03996,50.069577 -11.79298,15.59212 -26.55645,33.00637 -27.93794,32.95421 -0.66709,-0.0252 -6.3118,-1.61221 -12.54381,-3.52674 z"
   id="path429" /><path
   i:knockout="Off"
   fill="#94B42A"
   d="M239.59,153.568c0,0,26.74,5.813,47.669,19.766      c20.927,13.95,46.503,38.367,51.158,38.367c4.646,0-34.882-25.579-61.623-40.694C250.053,155.892,239.59,153.568,239.59,153.568      z"
   id="path5" />&#10;				<path
   i:knockout="Off"
   fill="#94B42A"
   d="M165.18,134.968c0,0-9.302-75.575,9.302-97.665      c18.604-22.089,11.625-3.485,11.625-3.485S167.503,14.051,165.18,134.968z"
   id="path6" />&#10;				<path
   i:knockout="Off"
   fill="#502C14"
   d="M161.69,126.828c0,0,10.468,34.881,18.604,27.902      c8.136-6.975,10.464-13.95,10.464-13.95s8.141,11.626,22.089,12.788c13.95,1.162,23.252,1.162,23.252,1.162      s-40.69-6.975-34.877-17.439c5.812-10.463-9.303-5.812-9.303-5.812l-10.464,16.277L161.69,126.828z"
   id="path7" />&#10;			</g>&#10;&#10;</svg>
