<svg xmlns="http://www.w3.org/2000/svg" xmlns:i="&amp;ns_ai;" i:pageBounds="70.957 718.8887 513.4346 123.6133" i:rulerOrigin="-70.957 -123.6133" i:viewOrigin="70.957 718.8887" xml:space="preserve" width="442.478" height="595.275"><path d="M203.043 576.897c-35.25-2.925-75.46-16.44-94.515-31.766-13.284-10.686-26.86-38.993-33.18-69.184-2.324-11.103-2.622-14.76-2.572-31.558.049-16.406.404-20.639 2.601-31 4.276-20.164 9.782-33.128 25.692-60.5 3.677-6.325 10.087-17.575 14.244-25 4.158-7.425 9.92-16.65 12.807-20.5 7.064-9.423 10.584-17.292 12.404-27.73 1.867-10.705 4.822-17.558 11.912-27.618 13.388-18.998 29.425-29.748 44.107-29.565 14.175.176 36.645 9.082 50.236 19.91 8.802 7.012 13.626 12.785 46.02 55.061 41.871 54.647 45.185 59.678 54.125 82.161 7.75 19.493 11.145 34.085 14.184 60.96 1.012 8.949 1.017 13.538.024 23-2.696 25.694-10.21 44.62-24.86 62.618-23.59 28.979-61.43 47.712-101.229 50.114-5.775.349-13.2.803-16.5 1.01s-10.275.02-15.5-.413" style="fill:#f1d089"/><path i:knockout="Off" fill="#502C14" d="M181.457 232.629s-18.6-66.273 2.328-101.15c20.928-34.882 24.413-6.979 24.413-3.489 0 3.489-33.715 30.23-16.277 94.171-4.651 15.115-10.464 10.468-10.464 10.468"/><path d="M331.543 223.195c-20.288-1.066-43.721-5.338-51.75-9.434-6.584-3.358-24.196-22.797-38.392-42.372-9.012-12.427-8.624-11.388-6.57-17.582 2.206-6.652 10.73-20.086 16.004-25.225l3.908-3.806 10.1 2.025c19.651 3.939 35.26 11.91 49.768 25.414 17.822 16.588 29.346 39.886 30.876 62.424l.628 9.25-4.286-.19c-2.357-.103-6.986-.33-10.286-.504" style="fill:#6f8023"/><path d="M155.212 134.316c-24.609-7.56-36.807-15.905-40.218-27.514-.551-1.877-1.49-8.588-2.085-14.913-2.267-24.096-2.296-23.082.858-29.574 5.114-10.525 12.031-18.766 26.855-31.994 11.48-10.245 19.157-15.432 22.834-15.432 3.176.001 13.7 4.52 18.52 7.952 2.69 1.915 2.736 1.915 4.383-.008 2.052-2.397 3.914-2.434 9.702-.193 6.116 2.368 11.472 5.817 13.225 8.516 3.737 5.755 5.056 12.768 4.448 23.663-1.106 19.823-6.513 34.83-18.04 50.07-11.793 15.592-26.557 33.006-27.938 32.954-.667-.025-6.312-1.612-12.544-3.527" style="fill:#506d25"/><path i:knockout="Off" fill="#94B42A" d="M239.59 153.568s26.74 5.813 47.669 19.766c20.927 13.95 46.503 38.367 51.158 38.367 4.646 0-34.882-25.579-61.623-40.694s-37.204-17.439-37.204-17.439M165.18 134.968s-9.302-75.575 9.302-97.665c18.604-22.089 11.625-3.485 11.625-3.485s-18.604-19.767-20.927 101.15"/><path i:knockout="Off" fill="#502C14" d="M161.69 126.828s10.468 34.881 18.604 27.902c8.136-6.975 10.464-13.95 10.464-13.95s8.141 11.626 22.089 12.788c13.95 1.162 23.252 1.162 23.252 1.162s-40.69-6.975-34.877-17.439c5.812-10.463-9.303-5.812-9.303-5.812l-10.464 16.277z"/></svg>